<?xml version="1.0" encoding="UTF-8"?>
<svg enable-background="new 0 0 2624.894 1078.302" version="1.1" viewBox="0 0 2624.894 1078.302" xmlns="http://www.w3.org/2000/svg">
 <path d="m72.348 576.08c-1.621 10.752 5.746 22.973 3.701 44.939-0.632 6.789 0.591 13.819 0.409 20.767-0.05 1.907 1.685 4.438-1.402 5.196-8.239 2.025-9.944-10.563-9.943-18.982 0-1.516 1.208-3.927-1.412-4.29-1.962-0.271-2.354 1.163-5.545 7.628-1.21 2.452-2.148 4.68 0.839 6.85 1.235 0.897 3.447 3.417 0.459 4.477-5.72 2.03-3.719 5.904-2.451 9.137 1.094 2.791 0.93 11.109-2.468 11.695-1.617 0.279-2.78-0.749-3.268-2.1-2.354-6.524-7.558-10.729-12.348-15.22-3.202-3.003-1.773-7.13-2.833-10.626-11.804-38.937 11.155-39.548 8.109-65.748-0.372-3.197 1.485-5.937 2.222-8.898 13.767-55.29-3.715-77.28 48.262-150.94 6.684-9.472 12.212-19.807 19.323-29.056 1.861-2.42 2.9-5.306 3.511-8.074 4.345-19.7 20.61-33.752 21.737-35.681 4.58-7.838 11.382-11.416 20.41-10.455 3.328 0.354 5.726-0.951 8.616-2.513 35.095-18.973 72.506-0.184 56.21-50.82-4.812-14.951-2.7-42.946 12.057-50.358 3.229-1.622 3.522-5.998 6.755-7.791 0.878-0.487 1.483-1.97 2.281-2.025 11.769-0.818 37.195-16.402 56.117 2.109 3.73 3.649 11.393 6.762 12.89 13.647 1.193 5.483 6.011 6.408 8.73 15.319 1.127 3.693 2.486 7.407 5.524 9.943 3.027 2.527 1.994 6.36 3.54 9.348 0.601 1.161-1.198 1.349-2.021 1.856-10.088 6.205-2.313 7.142-7.276 14.725-2.774 4.238-3.242 8.746-3.021 13.493 0.42 9.015-8.418 4.013-7.721 12.85 0.334 4.235-1.531 6.761-4.528 9.255-4.953 4.123-4.113 7.486 1.975 9.766 10.645 3.986 24.407 13.835 24.407 13.835 15.086 1.802 29.038 40.956 33.438 55.436 2.476 8.148 1.931 4.458 30.453 46.44 2.11 3.106 31.316 33.228 41.064 62.26 3.774 11.239 5.964 22.858 9.628 34.079 5.785 17.715 10.096 14 11.15 26.106 1.716 19.72 8.512 28.299 12.578 41.472 1.01 3.274 0.961 6.889 3.388 9.711 0.946 1.1 1.267 2.632 0.343 3.92-8.531 11.895 42.864 12.962 58.077 21.359 2.674 1.476 6.323 1.728 9.533 2.27 9.529 1.61 5.57-3.362 12.872-3.784 13.802-0.797 16.005 0.737 13.533-5.777-3.193-8.415-8.077-5.975-10.815-11.554-0.713-1.453-1.675-2.459-3.45-2.856-5.397-1.207-7.378-4.658-4.517-9.154 3.308-5.199 1.87-9.119-1.652-13.13-10.304-11.738-5.745-21.993-7.719-35.618-0.916-6.323 1.67-12.086 6.082-15.958 4.929-4.326 8.459-10.787 15.76-12.1 4.864-0.874-0.069-6.176 4.988-5.48 3.037 0.418 4.559-3.75 6.872-4.84 4.879-2.299 10.149-4.701 15.852-3.907 9.582 1.333 13.612-2.193 23.327 7.548 8.724 8.748 13.36 4.476 14.802 10.468 0.041 0.168 0.088 0.368 0.204 0.479 8.128 7.893 10.087 18.586 11.825 28.88 1.146 6.787 3.211 13.937 0.928 21.046-0.736 2.293 3.088 7.994-0.18 10.391-2.593 1.902-1.51 6.007 2.846 5.895 25.555-0.659 32.07-3.264 49.745 4.803 17.914 8.176 43.432 4.64 60.472-2.723 7.293-3.151 15.424-2.264 23.059-4.076 9.423-2.237 19.033-3.701 28.279-6.688 11.54-3.728-2.422-10.227 5.608-15.392 7.344-4.724 1.348-13.613 21.61-21.868 8.153-3.322 16.126-7.61 21.806-14.445 7.439-8.952 15.846-11.485 25.918-21.286 88.185-85.805 62.28-44.623 104.21-89.73 30.32-32.615 38.618-56.09 57.038-61.428 2.424-0.702 5.616-1.31 6.729-3.626 4.819-10.03 19.85-18.172 17.518-21.75-3.012-4.622-10.666 9.696-15.885-3.803-0.126-0.326-0.21-0.735-0.453-0.938-6.678-5.572-8.403-14.608-14.436-20.622-4.139-4.126-13.662 7.715-13.135-6.214 0.538-14.217 6.159-21.284-1.665-25.289-1.511-0.773-4.308-3.713-4.958-6.476-0.448-1.905 4.279-0.329 2.254-3.146-1.248-1.737-3.448 1.25-5.866-3.265-8.815-16.459 1.751-32.467 16.496-41.86 6.52-4.154 10.056-10.858 14.646-16.637 8.708-10.965 16.135-4.057 28.888-4.959 7.87-0.556 15.133 3.944 23.099 2.367 2.192-0.434 2.625 1.93 3.406 3.414 2.891 5.491 4.077 5.629 10.231 3.994 12.413-3.298 8.484-8.129 12.256-4.122 3.119 3.314 7.286 5.417 10.575 8.326 15.975 14.127-1.29 20.629 12.237 23.697 5.205 1.18 3.608 5.902 4.203 8.993 0.557 2.892-2.59 3.645-5.235 3.497-7.805-0.439-1.929 15.948-3.934 25.84-0.775 3.823-4.621 4.379-7.005 6.486-0.448 0.396-1.525 0.071-1.987 0.462-1.99 1.685-5.997 1.597-5.943 4.922 0.085 5.245 3.509 8.582 8.488 8.715 68.588 1.831 56.51-7.103 120.68 25.877 6.596 3.39 11.926 8.985 19.056 11.568 17.299 6.267 31.596 17.944 47.673 26.392 14.717 7.734 69.006 56.333 78.115 65.289 8.349 8.209 9.488 13.591 18.344 18.384 21.931 11.87 24.819 17.227 34.709 25.226 28.028 22.67 93.317 15.482 126.87 23.876 35.746 8.943 81.071 4.622 80.307-0.29-0.539-3.469 0.204-7.224-2.622-10.217-9.334-9.887-8.175-24.239-6.061-25.712 3.834-2.67 2.948-6.271 1.533-9.354-1.738-3.788 0.497-6.681 0.908-10.002 0.519-4.193 2.993-5.231 6.41-6.365 1.944-0.645 3.492-2.826 4.946-4.547 29.311-34.695 41.442-24.348 86.877-9.353 2.318 0.765 4.827 1.02 7.059 1.958 4.283 1.8 5.756 6.198 3.031 9.782-2.472 3.249-3.706 7.578-7.963 9.415-3.217 1.388 0.651 4.985-0.153 5.985-4.382 5.45 1.245 5.2 3.686 6.08 7.203 2.597 15.494 13.336 14.203 25.771-0.246 2.368 1.318 3.417 3.554 3.598 8.76 0.706 16.435 5.401 25.102 6.794 3.173 0.51 5.813 4.267 9.042 6.233 7.323 4.458 14.36 9.116 19.718 16.485 7.979 10.974 18.871 19.437 28.528 28.964 2.654 2.619 5.61 0.425 5.049-1.831-2.231-8.981 0.714-25.677-3.491-28.004-6.76-3.74-10.985-10.004-15.68-15.794-1.779-2.194-5.615-3.145-4.912-6.827 0.783-4.099 9.276-8.094 8.62-14.304-0.348-3.298 4.198-4.012 4.723-7.131 0.672-3.991 3.779-3.372 6.519-3.435 5.03-0.115 10.1-7.409 28.438-19.126 0.433-0.276 0.819-0.669 1.134-1.08 17.682-23.072 59.04-42.029 71.199-56.031 2.53-2.914 5.415-5.428 8.425-7.804 8.499-6.709 9.17-14.313 31.708-27.932 21.516-13.002 16.943-25.401 39.887-60.019 9.524-14.368 17.025-29.696 18.878-47.427 1.821-17.423 14.43-44.992 26.727-46.609 2.375-0.312 5.157-2.072 5.449-5.529 0.403-4.77-0.306-7.721-11.243-11.236-12.166-3.909-8.645 11.895-28.204 15.381-14.056 2.505-8.061-8.844-17.732-14.63-3.233-1.935-3.754-6.706-1.205-9.962 1.624-2.074 2.985-4.033 1.132-6.52-1.898-2.547-4.19-1.552-6.584-0.626-13.632 5.271-8.973-7.402-16.317-7.256-7.131 0.141-10.901 1.937-11.354-3.222-1.548-17.656 4.32-8.991 3.659-23.78-0.199-4.461-1.344-5.355-5.486-4.224-1.25 0.341-2.767 1.856-3.618 0.399-1.308-2.239 6.721-2.912 0.556-8.73-0.916-0.864-3.024-0.888-1.103-2.816 5.431-5.454-2.638-12.171 4.789-26.008 1.212-2.258 2.043-4.71 0.682-6.989-2.206-3.692-0.345-7.206 0.315-10.62 0.366-1.896 1.426-4.248 5.097-3.757 3.071 0.411 4.999-3.173 7.202-5.307 26.89-26.048 58.512-28.56 79.003-12.682 5.503 4.265 11.536 7.796 16.699 12.56 2.001 1.846 4.522 3.438 7.806 0.824 3.795-3.02 8.016-0.143 11.973 0.569 8.411 1.512 10.897 8.364 12.307 15.33 2.483 12.269 14.612 2.039 12.518 14.53-1.963 11.709 1.611 13.518-4.333 13.794-2.846 0.132-8.055-1.543-7.838 4.235 0.143 3.808-3.818 8.192-1.024 10.308 1.996 1.512 2.147-0.138 6.189-3.454 2.068-1.697 5.743 0.402 3.019 4.795-0.672 1.084-2.818 1.796-1.656 3.319 2.323 3.047 17.848-2.174 21.326-3.516 6.93-2.673 13.941-3.804 21.48-2.368 10.729 2.044 21.808 2.245 32.321 5.446 5.483 1.67 69.205 26.086 112.82 29.757 11.738 0.988 12.685-1.733 31.536 2.966 16.47 4.106 24.267 2.108 74.592 17.901 18.135 5.691 15.891 7.985 34.563 11.533 28.009 5.323 40.461 9.04 65.592 8.01 10.086-0.413 4.129 1.467 21.577 3.12 8.251 0.782 15.64 5 21.636 9.855 4.646 3.762 6.556 10.954 9.515 16.707 0.639 1.241 0.382 3.087-0.946 3.794-6.643 3.539 4.264 11.891-3.231 14.074-3.034 0.883-7.104-1.442-8.164-4.967-1.424-4.738-3.247-8.82-9.071-9.083-0.437-0.02-1.253-0.528-1.225-0.703 1.269-8.024-6.086-4.011-9.025-6.005-3.019-2.048-7.628-3.849-11.743-0.695-2.42 1.854-5.789-3.57-6.5 3.086-0.938 8.765 8.77 2.609 18.953 13.983 5.246 5.86 1.007 12.042-6.768 9.425-12.225-4.115-15.418-10.315-32.511-13.251-2.959-0.508-5.079-1.705-7.195-3.641-4.221-3.862-10.168-4.903-14.369-9.115-22.461-22.521-86.233-11.29-123.17-20.3-8.195-1.999-16.41 0.217-24.535-0.934-44.954-6.367-35.109-6.044-51.783-5.913-40.863 0.322-50.398-8.228-45.135 3.789 12.187 27.831 9.043 31.352 14.853 44.972 5.662 13.275 7.63 37.525 13.082 50.946 1.801 4.431 2.585 9.323 3.448 14.078 4.71 25.975 28.837 77.424 28.837 77.424-1.883 7.997 6.564 12.109 13.798 29.918 3.513 8.646 9.93 11.447 8.098 37.882-0.926 13.355-5.563 33.383-14.836 42.877-6.764 6.925-9.832 17.004-18.833 22.017-0.574 0.32-1.11 0.949-1.37 1.56-5.819 13.712-16.821 24.371-22.167 38.447-16.139 42.489-52.004 86.419-51.378 120.08 0.132 7.111 3.065 13.609 5.273 20.171 19.759 58.732 10.483 30.606 45.906 82.7 0.68 1 16.766 30.149 31.554 38.997 6.727 4.025 12.197 9.726 18.302 14.545 9.154 7.225 7.023 13.332-0.205 21.782-5.018 5.866-11.576 9.655-19.086 11.821-13.729 3.96-12.16 15.632-27.343 27.997-12.567 10.234 1.849 19.689-9.184 30.988-14.963 15.324-33.459 16.539-57.013 16.168-16.364-0.258-21.097 10.679-67.303 8.332-3.526-0.179-7.043-0.277-7.765-4.451-2.905-16.799 11.935-9.706 61.994-38.162 38.905-22.116-11.552-110.58-18.802-142.72-6.636-29.424-6.419-30.202-10.179-33.528-24.713-21.856 8.014 1.555-67.215-58.788-8.77-7.035-13.109-17.485-15.944-28.272-2.319-8.824 40.861-119.09 44.494-127.32 23.497-53.242 23.685-48.477 43.034-74.831 3.135-4.27 5.724-8.886 9.708-12.688 9.621-9.183-6.533-11.347-9.592-34.182-1.528-11.399-4.918-8.019-7.764-29.58-1.777-13.465 5.752-12.95-16.846-56.518-0.948-1.828-1.974-1.586-3.336-0.703-10.773 6.988-32.575-15.312-32.552-28.057 1e-3 -0.651-0.49-1.292-0.691-1.956-0.892-2.932-2.295-6.2-5.412-6.269-2.622-0.058-3.642 3.227-4.661 5.687-18.342 44.259-71.179 105.42-91.817 118.6-84.817 54.186-101.42 44.152-110.86 61.995-7.307 13.797-21.782 15.605-20.611 27.911 1.081 11.357-4.278 9.005-3.193 14.563 2.238 11.468 4.37 22.963 8.195 34.04 5.663 16.398 5.066 41.4 1.147 51.265-1.326 3.338 0.185 7.366 2.421 10.224 4.535 5.796 4.01 13.199 6.821 19.513 1.186 2.665-0.924 5.099-1.774 7.44-2.123 5.846-0.775 12.259-3.209 17.936-3.792 8.843-9.33 16.81-17.422 21.798-18.389 11.335-30.409 29.013-45.334 43.774-23.19 22.935-45.274 38.006-33.332 50.004 28.98 29.114 23.969 27.528 40.603 72.766 5.356 14.565 3.1 3.481 9.518 21.779 6.121 17.448 25.567 24.074 19.747 39.844-0.574 1.556-1.134 2.705-2.572 3.661-30.547 20.303-16.622 30.405-44.802 36.982-8.432 1.968-17.459 0.195-26.026 2.427-1.19 0.31-1.981-0.395-2.837-0.999-5.099-3.595-5.69 2.306-10.792 2.56-30.976 1.547-31.08 1.965-32.178-0.615-0.677-1.589-0.37-3.399 0.856-4.359 1.903-1.49 2.717-3.672 4.074-5.286 8.34-9.919 11.984 2.48 19.193-6.927 2.745-3.582 6.667-6.77 8.002-10.814 5.87-17.785 29.648-17.33-14.644-92.628-15.989-27.182-19.424-52.358-36.992-66.805-2.714-2.232-2.697-17.629 6.151-35.055 55.402-109.12 64.453-105.41 55.459-106.75-0.867-0.13-1.023-0.871-0.868-1.592 1.876-8.749-20.975-12.373-35.569-25.431-3.241-2.9-17.722 0.845-27.364-15.505-3.685-6.251-4.997-1.21-8.064-10.073-1.814-5.242-19.412-10.36-34.986-23.082-7.67-6.265-9.087-5.801-83.238-2.72-40.853 1.698-59.661-12.453-92.346-19.554-7.859-1.707-14.883-5.739-22.536-8.042-5.283-1.59-10.047 1.229-15.108 1.322-10.196 0.188-15.862 5.519-23.44 5.092-7.074-0.398-7.316 7.931-11.457 2.715-5.311-6.689-10.968-13.044-17.507-18.583-7.153-6.059-4.58-16.552-19.267-27.923-101.33-78.453-77.775-67.955-106.77-75.813-43.914-11.901-51.039-23.137-47.31-9.217 13.242 49.436 4.245 38.008 28.386 102.32 7.063 18.817-1.398 17.894 5.427 24.282 13.802 12.918 18.628 39.381 20.255 58.286 1.126 13.076 1.253 14.092-3.517 37.216-6.828 33.104-18.841 24.621-43.646 67.566-5.939 10.282-12.367 12.11-16.313 32.84-2.308 12.122-5.05 24.388-2.561 36.815 1.998 9.974 1.509 20.135 2.964 30.135 0.938 6.444 0.548 1.424 25.408 30.788 16.707 19.734 36.989 99.187 58.552 135.2 3.021 5.046 15.984 11.59 13.998 30.581-0.162 1.55-0.913 2.397-2.486 2.924-47.224 15.82-33.585 7.582-77.14 18.113-14.91 3.605-29.38 9.094-44.841 10.513-7.922 0.727-8.115 0.968-11.153-6.591-3.498-8.703-19.398 11.291-48.496 6.614-7.638-1.228-24.936-8.693-28.663-10.91-4.431-2.636-8.24-8.996-1.425-11.765 5.268-2.141 4.977 4.858 25.799-9.431 6.592-4.523 15.79-8.488 20.679-14.907 8.654-11.365 5.88-17.282 9.881-29.545 5.776-17.699-1.675-39.439-5.544-56.949-3.158-14.291-6.827-28.469-11-42.497-3.66-12.304-10.301-25.03-11.762-37.815-1.475-11.808-14.699-27.756-11.647-40.477 0.502-2.093-0.304-4.487-0.434-6.747-0.561-9.703 11.219-45.241 12.179-47.74 0 0-5.021-82.348 5.039-118.82 5.005-18.147-2.775-16.316-0.488-52.883 0.454-7.253 1.006-39.311-2.304-49.235-0.922-2.763-2.848-4.196-5.624-2.491-5.341 3.281-11.364 2.956-17.195 3.54-18.342 1.836-24.152-35.023-35.03-57.049-2.981-6.035-10.839-4.104-20.218-8.098-4.497-1.915-7.795-0.5-10.766 2.635-4.007 4.228-29.207 32.04-38.393 39.024-4.95 3.764-9.661 8.078-13.605 12.866-4.42 5.365-10.383 8.586-15.623 12.741-4.367 3.463-8.153 7.851-12.787 10.597-9.116 5.403-16.353 13.17-25.451 18.568-35.887 21.29 2.307 4.386-62.701 34.081-4.404 2.011-24.023 4.818-28.059 24.709-2.51 12.368-15.73 16.687-18.271 28.42-0.897 4.139-5.807 6.941-4.993 12.115 0.121 0.769-1.071 1.502-1.98 1.173-2.271-0.821-3.178 0.081-4.486 2.03-3.423 5.1-5.764-5.533-9.354-2.182-4.042 3.772-9.322 4.722-14.169 6.336-30.061 10.013-43.707 31.34-107.87 25.973-7.782-0.652-6.692-0.82-5.551 6.547 2.633 17.001 24.794 46.479 33.832 76.689 2.258 7.548 6.871 14.068 10.305 21.108 1.962 4.023 10.968 2.393 9.934 9.789-1.637 11.711 10.784 11.498 3.794 37.2-1.693 6.224-4.714 12.204-4.003 18.956 0.048 0.46-0.136 1.23-0.455 1.401-9.149 4.894-8.116 27.516-16.4 38.963-4.616 6.379-0.054 14.892-6.739 20.8-4.685 4.141 1.329 13.483-7.493 11.127-6.904-1.844-13.903-3.196-21.03-3.93-2.247-0.231-4.669-1.57-5.439 1.83-0.685 3.026-3.419 6.678 0.568 8.981 13.363 7.717 21.034 20.533 29.925 32.328 0.03 0.04 17.174 20.453 32.711 41.119 4.299 5.719 10.418 9.106 15.024 14.283 4.128 4.638 3.996 5.319 0.451 10.315-9.049 12.752-44.424 17.501-40.735 28.242 2.633 7.664-40.297 0.716-58.316 8.17-7.084 2.93-14.688 1.851-22.077 2.126-4.389 0.163-8.452-8.295-6.058-9.563 8.97-4.749 15.654-13.333 26.138-15.547 6.188-1.306 17.149-4.234 15.989-10.471-1.066-5.732-1.887-0.315-1.568-13.748 0.224-9.457-14.834-36.947-18.829-59.222-1.747-9.738-5.812-4.46-23.28-27.484-13.938-18.372 21.926-76.766 17.115-87.998-2.863-6.684 5.904-2.263 0.394-12.425-2.457-4.533-2.453-9.466-1.78-14.282 0.771-5.513 6.268-7.123 9.855-10.164 3.918-3.322 4.18-2.931-0.465-5.55-9.847-5.552-4.979-6.764-31.674-35.744-4.515-4.902-8.287-10.048-10.683-16.495-4.729-12.722-14.534-16.851-17.493-29.385-1.52-6.438-7.883-20.786-14.169-18.627-6.3 2.164-35.146 8.744-48.739 10.806-10.452 1.586-20.588 0.206-30.615-3.835-10.744-4.331-21.59-8.595-31.524-14.361-15.292-8.876-24.04-9.198-29.527-14.813-5.976-6.115-10.836 1.124-12.258-2.737-2.341-6.357-18.268-3.766-21.422-22.983-1.344-8.189 0.949-15.718 1.313-23.498 0.865-18.454 18.232-20.767 5.029-38.184-10.748-14.178-43.718-49.008-51.078-77.816-2.096-8.202-27.765-31.881-41.948-57.41-7.167-12.9-9.075-20.057-15.99-19.36-11.507 1.16-8.796 16.634-19.597 35.371-4.538 7.872-6.568 16.772-11.237 24.513-2.008 3.329-2.207 7.282-3.179 10.935-6.795 25.539-13.716 26.223-10.22 55.323 2.943 24.5-4.558 13.06 5.873 43.766 1.584 4.663 6.569 8.326 7.393 13.846 1.091 7.305 18.654 35.282 14.167 61.647-1.57 9.223 4.648 4.3 5.66 20.303 0.927 14.655 6.659 19.47 1.346 38.542-2.465 8.846-6.392 37.344-4.703 46.441 0.647 3.483-3.354 5.619-3.9 9.519-5.024 35.914 4.487 29.406-0.385 42.15-5.581 14.6-7.776 29.86-9.547 45.314-6.449 56.266-36.643 83.991-38.966 134.48-0.162 3.523 1.867 5.795 4.126 8.102 11.791 12.042 18.288 9.304 23.926 21.603 0.332 0.724 0.359 2.376 0.2 2.42-4.291 1.188-2.078 5.736-4.226 8.037-4.184 4.483-1.114 2.313-16.294 5.482-14.324 2.99-16.652 5.585-23.187 2.278-5.137-2.6-11.367-1.803-16.332-5.213-4.697-3.226-10.271-5.33-13.115-10.798-0.515-0.989-1.525-1.342-2.451-1.84-15.99-8.607-4.309-20.634-4.683-34.763-0.435-16.448 4.128-10.674 2.676-45.166-2.641-62.749-6.745-19.489-4.25-88.13 1.052-28.949 23.638-42.297 14.852-64.617-0.394-1.002-5.575-19.343-12.981-21.52-1.513-0.445-1.999-2.646-2.765-4.245-4.485-9.359-9.226-18.589-15.159-27.145-11.306-16.306-21.821-39.237-28.786-50.514-3.423-5.543-1.241-8.78-5.618-13.322-5.78-5.997-19.452-55.399-19.183-58.054 1.078-10.646-0.559-21.886 5.224-31.816 1.607-2.76 1.769-5.989 2.107-9.096 0.736-6.764 5.392-11.854 7.547-18.095 15.654-45.331 9.336-57.413 1.999-121.37-0.728-6.349 5.528-27.449-16.28 5.838-15.805 24.123-20.464 15.891-26.982 41.052-6.531 25.213-19.337 45.92-29.772 85.546-1.592 6.046-0.501 12.192-1.105 21.222zm1152 382.32c4.514 15.965 0.5 26.795 12.221 23.07 1.97-0.626 3.926-1.584 5.607-2.786 43.587-31.172 37.994-37.761-10.639-105.78-10.327-14.445-7.762 3.919-9.879 30.916-0.869 11.084 1.014 22.356 0.92 33.539-0.061 6.962 3.666 13.451 1.77 21.044zm1032.1-92.219c-1.072 5.164 0.39 9.178 2.938 12.891 2.682 3.91 7.187 0.94 6.345-1.872-2.097-7.009 0.152-14.112-0.826-21.24-0.97-7.066-3.495-13.791-3.781-21-0.14-3.534-1.594-7.119-3.339-10.368-2.368-4.412-7.842-2.57-6.786 1.945 0.233 1.002 5.503 35.403 5.449 39.644zm-1541.2 98.18c0.735 6.19 1.931 12.314 2.328 18.565 0.097 1.525 1.387 3.795 3.713 3.666 2.893-0.161 6.333-5.317 5.599-8.378-1.047-4.367-2.295-8.689-3.543-13.005-1.805-6.24-8.624-5.285-8.097-0.848z"/>
 <polygon points="751.21 819.52 751.11 819.11 751.41 819.16"/>
</svg>
